#N canvas 536 0 814 670 10;
#X obj 55 58 osc~ 0.1;
#X obj 55 81 +~ 1;
#X obj 55 104 *~ 0.25;
#X obj 55 197 +~;
#N canvas 411 135 450 300 gust 0;
#X obj 48 11 noise~;
#X obj 48 34 lop~ 0.5;
#X obj 48 57 lop~ 0.5;
#X obj 48 80 hip~ 0;
#X obj 48 103 *~ 50;
#X obj 48 126 *~;
#X obj 48 149 outlet~;
#X obj 122 15 inlet~;
#X obj 122 38 +~ 0.5;
#X obj 122 61 *~;
#X obj 122 84 -~ 0.125;
#X connect 0 0 1 0;
#X connect 1 0 2 0;
#X connect 2 0 3 0;
#X connect 3 0 4 0;
#X connect 4 0 5 0;
#X connect 5 0 6 0;
#X connect 7 0 8 0;
#X connect 8 0 9 0;
#X connect 8 0 9 1;
#X connect 9 0 10 0;
#X connect 10 0 5 1;
#X restore 71 143 pd gust;
#X obj 71 166 +~;
#N canvas 0 50 450 300 squall 0;
#X obj 24 54 inlet~;
#X obj 24 77 max~ 0.4;
#X obj 24 100 -~ 0.4;
#X obj 24 124 *~ 8;
#X obj 24 147 *~;
#X obj 92 164 *~;
#X obj 106 18 noise~;
#X obj 106 41 lop~ 3;
#X obj 106 87 hip~ 0;
#X obj 106 110 *~ 20;
#X obj 92 187 outlet~;
#X obj 106 64 lop~ 3;
#X connect 0 0 1 0;
#X connect 1 0 2 0;
#X connect 2 0 3 0;
#X connect 3 0 4 0;
#X connect 3 0 4 1;
#X connect 4 0 5 0;
#X connect 5 0 10 0;
#X connect 6 0 7 0;
#X connect 7 0 11 0;
#X connect 8 0 9 0;
#X connect 9 0 5 1;
#X connect 11 0 8 0;
#X restore 121 143 pd squall;
#X obj 55 242 delwrite~ a 3000;
#X obj 288 94 *~ 200;
#X obj 288 117 +~ 200;
#X obj 288 140 osc~;
#X obj 288 163 *~ 0.1;
#X obj 288 186 dac~;
#X obj 288 71 vd~ a 0;
#X obj 55 220 clip~ 0 1;
#X connect 0 0 1 0;
#X connect 1 0 2 0;
#X connect 2 0 3 0;
#X connect 2 0 4 0;
#X connect 2 0 6 0;
#X connect 3 0 14 0;
#X connect 4 0 5 0;
#X connect 5 0 3 1;
#X connect 6 0 5 1;
#X connect 8 0 9 0;
#X connect 9 0 10 0;
#X connect 10 0 11 0;
#X connect 11 0 12 0;
#X connect 11 0 12 1;
#X connect 13 0 8 0;
#X connect 14 0 7 0;
