#N canvas 683 0 667 670 10;
#X obj 227 182 noise~;
#X obj 227 205 max~;
#X obj 227 228 -~;
#X obj 227 251 *~;
#X obj 227 274 hip~ 200;
#X obj 227 297 lop~ 4000;
#X obj 227 320 *~;
#X obj 227 343 *~ 1.2;
#X obj 227 431 *~;
#X obj 296 370 hsl 64 15 0 1 0 0 empty empty empty -2 -8 0 10 -262144
-1 -1 0 1;
#X msg 293 390 \$1 20;
#X obj 293 413 line~;
#X obj 227 454 dac~;
#X obj 288 71 vd~ a 2000;
#X obj 288 94 lop~ 0.1;
#X obj 288 117 *~ 0.4;
#X obj 288 140 +~ 0.3;
#X obj 272 165 sig~ 1;
#X obj 272 188 -~;
#X obj 55 58 osc~ 0.1;
#X obj 55 81 +~ 1;
#X obj 55 104 *~ 0.25;
#X obj 55 197 +~;
#N canvas 683 0 667 670 gust 0;
#X obj 48 11 noise~;
#X obj 48 34 lop~ 0.5;
#X obj 48 57 lop~ 0.5;
#X obj 48 80 hip~ 0;
#X obj 48 103 *~ 50;
#X obj 48 126 *~;
#X obj 48 149 outlet~;
#X obj 122 15 inlet~;
#X obj 122 38 +~ 0.5;
#X obj 122 61 *~;
#X obj 122 84 -~ 0.125;
#X text 147 59 --BUG--;
#X text 315 191 pow 2 ou signal*signal;
#X connect 0 0 1 0;
#X connect 1 0 2 0;
#X connect 2 0 3 0;
#X connect 3 0 4 0;
#X connect 4 0 5 0;
#X connect 5 0 6 0;
#X connect 7 0 8 0;
#X connect 8 0 9 0;
#X connect 8 0 9 1;
#X connect 9 0 10 0;
#X connect 10 0 5 1;
#X restore 71 143 pd gust;
#X obj 71 166 +~;
#N canvas 683 0 667 670 squall 0;
#X obj 24 54 inlet~;
#X obj 24 77 max~ 0.4;
#X obj 24 100 -~ 0.4;
#X obj 24 124 *~ 8;
#X obj 24 147 *~;
#X obj 92 164 *~;
#X obj 106 18 noise~;
#X obj 106 41 lop~ 3;
#X obj 106 87 hip~ 0;
#X obj 106 110 *~ 20;
#X obj 92 187 outlet~;
#X obj 106 64 lop~ 3;
#X text 233 66 Voir pour Max~ en pyhton;
#X text 213 23 tone = lop & lop*2 = butLP;
#X text 253 236 hip = atone;
#X connect 0 0 1 0;
#X connect 1 0 2 0;
#X connect 2 0 3 0;
#X connect 3 0 4 0;
#X connect 3 0 4 1;
#X connect 4 0 5 0;
#X connect 5 0 10 0;
#X connect 6 0 7 0;
#X connect 7 0 11 0;
#X connect 8 0 9 0;
#X connect 9 0 5 1;
#X connect 11 0 8 0;
#X restore 121 143 pd squall;
#X obj 55 242 delwrite~ a 2000;
#X obj 55 220 clip~ 0 1;
#X text 435 50 quivalent delwrite~ en python;
#X text 53 20 Algo01;
#X text 282 27 Algo02;
#X text 283 205 <-- Comment faire cette opération avec Max();
#X connect 0 0 1 0;
#X connect 1 0 2 0;
#X connect 2 0 3 0;
#X connect 3 0 4 0;
#X connect 4 0 5 0;
#X connect 5 0 6 0;
#X connect 6 0 7 0;
#X connect 7 0 8 0;
#X connect 8 0 12 0;
#X connect 8 0 12 1;
#X connect 9 0 10 0;
#X connect 10 0 11 0;
#X connect 11 0 8 1;
#X connect 13 0 14 0;
#X connect 14 0 15 0;
#X connect 14 0 6 1;
#X connect 15 0 16 0;
#X connect 16 0 18 1;
#X connect 17 0 18 0;
#X connect 18 0 1 1;
#X connect 18 0 2 1;
#X connect 18 0 3 1;
#X connect 19 0 20 0;
#X connect 20 0 21 0;
#X connect 21 0 22 0;
#X connect 21 0 23 0;
#X connect 21 0 25 0;
#X connect 22 0 27 0;
#X connect 23 0 24 0;
#X connect 24 0 22 1;
#X connect 25 0 24 1;
#X connect 27 0 26 0;
