#N canvas 683 0 667 670 10;
#X obj 68 27 noise~;
#X obj 69 62 max~ 0;
#X obj 116 63 min~ 0;
#X obj 116 86 *~ -1;
#X obj 68 147 +~;
#X obj 68 170 *~;
#X obj 68 193 +~;
#X obj 68 216 log~;
#X obj 68 239 *~ -2;
#X obj 67 326 *~;
#X obj 67 349 outlet~;
#X obj 153 286 noise~;
#X obj 153 309 cos~;
#X obj 178 128 sig~ \$1;
#X obj 162 153 sig~ 1;
#X obj 162 176 -~;
#X obj 67 263 sqrt~;
#X connect 0 0 1 0;
#X connect 0 0 2 0;
#X connect 1 0 4 0;
#X connect 2 0 3 0;
#X connect 3 0 4 1;
#X connect 4 0 5 0;
#X connect 5 0 6 0;
#X connect 6 0 7 0;
#X connect 7 0 8 0;
#X connect 8 0 16 0;
#X connect 9 0 10 0;
#X connect 11 0 12 0;
#X connect 12 0 9 1;
#X connect 13 0 15 1;
#X connect 13 0 5 1;
#X connect 14 0 15 0;
#X connect 15 0 6 1;
#X connect 16 0 9 0;
