#N canvas 683 0 667 670 10;
#X obj 116 62 bp~ 50 0.4;
#X obj 116 85 lop~ 500;
#X obj 130 117 *~;
#X text 152 120 Exposant 2 ou exposant lui même \, a voir;
#X obj 130 140 *~ 10;
#X obj 116 168 *~ 80;
#X obj 116 191 +~ 40;
#X obj 116 214 phasor~;
#X obj 116 237 -~ 0.25;
#X obj 116 260 cos~;
#X obj 116 283 *~;
#X obj 116 306 max~ 0.35;
#X obj 116 329 -~ 0.35;
#X obj 116 375 hip~ 500;
#X obj 116 398 hip~ 500;
#X obj 117 491 *~;
#X obj 146 430 hsl 64 15 0 1 0 0 empty empty empty -2 -8 0 10 -262144
-1 -1 0 1;
#X msg 143 450 \$1 20;
#X obj 143 473 line~;
#X obj 117 514 dac~;
#X obj 116 352 *~ 0.5;
#X obj 117 37 gaussianoise 0.4;
#X text 174 82 Rendu ici;
#X connect 0 0 1 0;
#X connect 1 0 2 0;
#X connect 1 0 2 1;
#X connect 1 0 5 0;
#X connect 2 0 4 0;
#X connect 4 0 10 1;
#X connect 5 0 6 0;
#X connect 6 0 7 0;
#X connect 7 0 8 0;
#X connect 8 0 9 0;
#X connect 9 0 10 0;
#X connect 10 0 11 0;
#X connect 11 0 12 0;
#X connect 12 0 20 0;
#X connect 13 0 14 0;
#X connect 14 0 15 0;
#X connect 15 0 19 0;
#X connect 15 0 19 1;
#X connect 16 0 17 0;
#X connect 17 0 18 0;
#X connect 18 0 15 1;
#X connect 20 0 13 0;
#X connect 21 0 0 0;
